<svg width="359" height="117" viewBox="0 0 359 117" fill="none" xmlns="http://www.w3.org/2000/svg">
<path d="M78.7727 51.3182H67.4091C67.2576 50.1515 66.947 49.0985 66.4773 48.1591C66.0076 47.2197 65.3864 46.4167 64.6136 45.75C63.8409 45.0833 62.9242 44.5758 61.8636 44.2273C60.8182 43.8636 59.6591 43.6818 58.3864 43.6818C56.1288 43.6818 54.1818 44.2348 52.5455 45.3409C50.9242 46.447 49.6742 48.0455 48.7955 50.1364C47.9318 52.2273 47.5 54.7576 47.5 57.7273C47.5 60.8182 47.9394 63.4091 48.8182 65.5C49.7121 67.5758 50.9621 69.1439 52.5682 70.2045C54.1894 71.25 56.1061 71.7727 58.3182 71.7727C59.5606 71.7727 60.6894 71.6136 61.7045 71.2955C62.7348 70.9773 63.6364 70.5152 64.4091 69.9091C65.197 69.2879 65.8409 68.5379 66.3409 67.6591C66.8561 66.7652 67.2121 65.7576 67.4091 64.6364L78.7727 64.7045C78.5758 66.7652 77.9773 68.7955 76.9773 70.7955C75.9924 72.7955 74.6364 74.6212 72.9091 76.2727C71.1818 77.9091 69.0758 79.2121 66.5909 80.1818C64.1212 81.1515 61.2879 81.6364 58.0909 81.6364C53.8788 81.6364 50.1061 80.7121 46.7727 78.8636C43.4545 77 40.8333 74.2879 38.9091 70.7273C36.9848 67.1667 36.0227 62.8333 36.0227 57.7273C36.0227 52.6061 37 48.2652 38.9545 44.7045C40.9091 41.1439 43.553 38.4394 46.8864 36.5909C50.2197 34.7424 53.9545 33.8182 58.0909 33.8182C60.9091 33.8182 63.5152 34.2121 65.9091 35C68.303 35.7727 70.4091 36.9091 72.2273 38.4091C74.0455 39.8939 75.5227 41.7197 76.6591 43.8864C77.7955 46.053 78.5 48.5303 78.7727 51.3182Z" fill="black"/>
<rect width="113.995" height="14.9079" fill="black"/>
<rect y="99.0936" width="113.995" height="14.9079" fill="black"/>
<rect width="73.0935" height="17.9994" transform="matrix(5.49932e-05 -1 1 4.15552e-05 95.9958 99.0935)" fill="black"/>
<rect width="75.0915" height="16.9995" transform="matrix(5.49932e-05 -1 1 4.15552e-05 0.000518799 89.9993)" fill="black"/>
<path d="M158.864 74.2727V65.5L177.932 35.4545H185.727V47.3636H181.205L170.045 65.0455V65.4091H197.659V74.2727H158.864ZM181.341 82V71.5909L181.568 67.75V35.4545H192.091V82H181.341Z" fill="black"/>
<rect x="122" width="87" height="16" fill="black"/>
<rect x="145" y="100" width="91" height="17" fill="black"/>
<rect width="84.1857" height="17.1497" transform="matrix(5.49932e-05 -1 1 4.15552e-05 218.846 100.094)" fill="black"/>
<rect width="84.1857" height="17.1497" transform="matrix(5.49932e-05 -1 1 4.15552e-05 122 100.094)" fill="black"/>
<path d="M323.773 51.3182H312.409C312.258 50.1515 311.947 49.0985 311.477 48.1591C311.008 47.2197 310.386 46.4167 309.614 45.75C308.841 45.0833 307.924 44.5758 306.864 44.2273C305.818 43.8636 304.659 43.6818 303.386 43.6818C301.129 43.6818 299.182 44.2348 297.545 45.3409C295.924 46.447 294.674 48.0455 293.795 50.1364C292.932 52.2273 292.5 54.7576 292.5 57.7273C292.5 60.8182 292.939 63.4091 293.818 65.5C294.712 67.5758 295.962 69.1439 297.568 70.2045C299.189 71.25 301.106 71.7727 303.318 71.7727C304.561 71.7727 305.689 71.6136 306.705 71.2955C307.735 70.9773 308.636 70.5152 309.409 69.9091C310.197 69.2879 310.841 68.5379 311.341 67.6591C311.856 66.7652 312.212 65.7576 312.409 64.6364L323.773 64.7045C323.576 66.7652 322.977 68.7955 321.977 70.7955C320.992 72.7955 319.636 74.6212 317.909 76.2727C316.182 77.9091 314.076 79.2121 311.591 80.1818C309.121 81.1515 306.288 81.6364 303.091 81.6364C298.879 81.6364 295.106 80.7121 291.773 78.8636C288.455 77 285.833 74.2879 283.909 70.7273C281.985 67.1667 281.023 62.8333 281.023 57.7273C281.023 52.6061 282 48.2652 283.955 44.7045C285.909 41.1439 288.553 38.4394 291.886 36.5909C295.22 34.7424 298.955 33.8182 303.091 33.8182C305.909 33.8182 308.515 34.2121 310.909 35C313.303 35.7727 315.409 36.9091 317.227 38.4091C319.045 39.8939 320.523 41.7197 321.659 43.8864C322.795 46.053 323.5 48.5303 323.773 51.3182Z" fill="black"/>
<rect x="245" width="113.995" height="14.9079" fill="black"/>
<rect x="245" y="99.0936" width="113.995" height="14.9079" fill="black"/>
<rect width="75.0914" height="17.1539" transform="matrix(5.49932e-05 -1 1 4.15552e-05 341.846 89.9993)" fill="black"/>
<rect width="84.1857" height="17.1497" transform="matrix(5.49932e-05 -1 1 4.15552e-05 245 99.0936)" fill="black"/>
</svg>
